<svg id="Layer_1" data-name="Layer 1" xmlns="http://www.w3.org/2000/svg" viewBox="0 0 512 512"><title>cloudy-sunny</title><rect width="512" height="512" fill="#d3de7e"/><path d="M306.42,287.68c-5-43.93-42.56-78.06-88.19-78.06S135,243.81,130,287.79a69.1,69.1,0,0,0-23.48-4.16c-38.33,0-69.4,32.87-69.4,71.2S68.21,426,106.54,426H299.22c38.93,0,70.52-30.73,70.52-69.35C369.74,320.45,342,291.25,306.42,287.68Z" fill="#fff"/><rect x="306.87" y="83.57" width="21.86" height="55.86" fill="#fff"/><rect x="430.74" y="241.44" width="43.72" height="17" fill="#fff"/><polygon points="397.2 330.39 436.46 369.64 449.56 356.56 410.3 317.3 397.2 330.39" fill="#fff"/><polygon points="259.8 166.86 220.55 127.61 207.46 140.69 246.73 179.94 259.8 166.86" fill="#fff"/><polygon points="449.56 140.69 436.46 127.61 397.2 166.86 410.3 179.94 449.56 140.69" fill="#fff"/><path d="M328.33,182.71a67.12,67.12,0,0,0-53,25.91,105.44,105.44,0,0,1,46.77,63.83c17.67,5.33,33.49,17,45.18,32.34a67.23,67.23,0,0,0-39-122.07Z" fill="#fff"/></svg>